<svg id="visual" viewBox="0 0 960 540" width="960" height="540" xmlns="http://www.w3.org/2000/svg" xmlns:xlink="http://www.w3.org/1999/xlink" version="1.1"><rect x="0" y="0" width="960" height="540" fill="#efefef"></rect><defs><linearGradient id="grad1_0" x1="43.8%" y1="0%" x2="100%" y2="100%"><stop offset="14.444444444444446%" stop-color="#efefef" stop-opacity="1"></stop><stop offset="85.55555555555554%" stop-color="#efefef" stop-opacity="1"></stop></linearGradient></defs><defs><linearGradient id="grad2_0" x1="0%" y1="0%" x2="56.3%" y2="100%"><stop offset="14.444444444444446%" stop-color="#efefef" stop-opacity="1"></stop><stop offset="85.55555555555554%" stop-color="#efefef" stop-opacity="1"></stop></linearGradient></defs><g transform="translate(960, 0)"><path d="M0 432C-37.7 402.9 -75.3 373.9 -117.4 361.4C-159.5 348.9 -206.1 353 -245.1 337.4C-284.1 321.7 -315.7 286.4 -343.8 249.8C-372 213.2 -396.7 175.3 -410.9 133.5C-425 91.6 -428.5 45.8 -432 0L0 0Z" fill="#2E3192"></path></g><g transform="translate(0, 540)"><path d="M0 -432C38.7 -401 77.3 -370 114 -350.9C150.7 -331.9 185.4 -324.7 227.5 -313.1C269.5 -301.5 319 -285.4 349.5 -253.9C380 -222.5 391.7 -175.6 402.3 -130.7C412.9 -85.8 422.5 -42.9 432 0L0 0Z" fill="#2E3192"></path></g></svg>